<svg width="32" height="32" viewBox="0 0 32 32" fill="none" xmlns="http://www.w3.org/2000/svg">
<g clip-path="url(#clip0)">
<g clip-path="url(#clip1)">
<path fill-rule="evenodd" clip-rule="evenodd" d="M16 6.16276C19.206 6.16276 19.5824 6.17705 20.8496 6.23422C22.0215 6.28662 22.655 6.48194 23.079 6.64867C23.6006 6.84029 24.0727 7.14631 24.4605 7.54426C24.8585 7.9321 25.1645 8.40416 25.3561 8.92576C25.5181 9.34974 25.7182 9.98333 25.7706 11.1552C25.8277 12.4224 25.842 12.7987 25.842 16.0048C25.842 19.2108 25.8277 19.5871 25.7706 20.8543C25.7182 22.0262 25.5228 22.6598 25.3561 23.0838C25.1565 23.6012 24.8508 24.0712 24.4586 24.4634C24.0664 24.8555 23.5965 25.1613 23.079 25.3609C22.655 25.5228 22.0215 25.7229 20.8496 25.7753C19.5824 25.8325 19.206 25.8468 16 25.8468C12.794 25.8468 12.4176 25.8325 11.1505 25.7753C9.97857 25.7229 9.34498 25.5276 8.921 25.3609C8.3994 25.1692 7.92734 24.8632 7.5395 24.4653C7.14155 24.0774 6.83553 23.6054 6.64391 23.0838C6.48194 22.6598 6.28186 22.0262 6.22946 20.8543C6.17229 19.5871 6.158 19.2108 6.158 16.0048C6.158 12.7987 6.17229 12.4224 6.22946 11.1552C6.28186 9.98333 6.47718 9.34974 6.64391 8.92576C6.83553 8.40416 7.14155 7.9321 7.5395 7.54426C7.92734 7.14631 8.3994 6.84029 8.921 6.64867C9.34498 6.4867 9.97857 6.28662 11.1505 6.23422C12.4176 6.17705 12.794 6.16276 16 6.16276ZM16 4C12.7416 4 12.3319 4.01429 11.0504 4.07146C9.76896 4.12862 8.90195 4.33347 8.13974 4.62882C7.33914 4.9309 6.61406 5.40399 6.01509 6.01509C5.40399 6.61406 4.9309 7.33914 4.62882 8.13974C4.33347 8.90195 4.12862 9.77372 4.07146 11.0552C4.01429 12.3366 4 12.7416 4 16C4 19.2584 4.01429 19.6681 4.07146 20.9496C4.12862 22.231 4.33347 23.0981 4.62882 23.8603C4.9309 24.6609 5.40399 25.3859 6.01509 25.9849C6.61406 26.596 7.33914 27.0691 8.13974 27.3712C8.90195 27.6665 9.77372 27.8714 11.0552 27.9285C12.3366 27.9857 12.7416 28 16.0048 28C19.268 28 19.6729 27.9857 20.9544 27.9285C22.2358 27.8714 23.1028 27.6665 23.8698 27.3712C24.6673 27.0629 25.3917 26.5913 25.9963 25.9867C26.6009 25.3821 27.0724 24.6578 27.3807 23.8603C27.6761 23.0981 27.8809 22.2263 27.9381 20.9448C27.9953 19.6634 28.0095 19.2584 28.0095 15.9952C28.0095 12.732 27.9953 12.3271 27.9381 11.0457C27.8809 9.76419 27.6761 8.89718 27.3807 8.13021C27.0786 7.32961 26.6056 6.60454 25.9945 6.00556C25.3955 5.39446 24.6704 4.92137 23.8698 4.61929C23.0981 4.33347 22.2263 4.12862 20.9496 4.07146C19.6729 4.01429 19.2584 4 16 4ZM16.0003 9.83984C14.7809 9.83984 13.5889 10.2015 12.5751 10.8791C11.5612 11.5566 10.7711 12.5196 10.3047 13.6463C9.83829 14.773 9.7165 16.0127 9.95474 17.2086C10.193 18.4044 10.7805 19.5028 11.6431 20.3647C12.5057 21.2266 13.6045 21.8134 14.8006 22.0507C15.9967 22.288 17.2363 22.1652 18.3626 21.6979C19.4889 21.2306 20.4513 20.4398 21.1281 19.4255C21.8049 18.4111 22.1656 17.2188 22.1646 15.9994C22.1634 14.3654 21.5134 12.7987 20.3575 11.6437C19.2016 10.4886 17.6344 9.83984 16.0003 9.83984ZM16.0003 20.001C15.2089 20.001 14.4352 19.7663 13.7771 19.3266C13.1191 18.8869 12.6062 18.262 12.3033 17.5308C12.0004 16.7996 11.9212 15.995 12.0756 15.2188C12.23 14.4425 12.6111 13.7295 13.1707 13.1699C13.7304 12.6102 14.4434 12.2291 15.2196 12.0747C15.9959 11.9203 16.8004 11.9996 17.5316 12.3024C18.2628 12.6053 18.8878 13.1182 19.3275 13.7763C19.7672 14.4343 20.0019 15.208 20.0019 15.9994C20.0019 17.0607 19.5803 18.0785 18.8298 18.829C18.0794 19.5794 17.0616 20.001 16.0003 20.001ZM23.8461 9.59101C23.8461 10.3856 23.202 11.0297 22.4074 11.0297C21.6129 11.0297 20.9688 10.3856 20.9688 9.59101C20.9688 8.79646 21.6129 8.15234 22.4074 8.15234C23.202 8.15234 23.8461 8.79646 23.8461 9.59101Z" fill="#190000"/>
</g>
</g>
<defs>
<clipPath id="clip0">
<rect width="32" height="32" fill="white"/>
</clipPath>
<clipPath id="clip1">
<rect x="4" y="4" width="24" height="24" fill="white"/>
</clipPath>
</defs>
</svg>
