<svg width="256" height="256" viewBox="0 0 256 256" fill="none" xmlns="http://www.w3.org/2000/svg">
<g clip-path="url(#clip0)">
<path d="M147.985 228.422C147.694 227.375 148.334 226.298 149.382 226.007C150.429 225.716 151.505 226.356 151.796 227.404C152.087 228.451 151.447 229.527 150.4 229.818C149.353 230.08 148.276 229.469 147.985 228.422ZM159.505 227.375C160.553 227.084 161.164 226.007 160.902 224.96C160.611 223.913 159.534 223.302 158.487 223.564C157.44 223.855 156.829 224.931 157.091 225.978C157.382 227.025 158.458 227.636 159.505 227.375ZM256 128V129.164C255.884 139.956 254.429 150.691 251.636 161.105C248.844 171.52 244.742 181.585 239.447 190.953L238.865 191.971C238.807 192.087 238.72 192.204 238.662 192.32L238.284 192.989C232.785 202.269 226.153 210.851 218.531 218.473C210.88 226.124 202.327 232.756 193.047 238.226L191.011 239.389C181.614 244.684 171.578 248.785 161.164 251.578C150.778 254.371 140.014 255.826 129.222 255.942H128.058V211.375C135.331 211.375 142.604 210.415 149.644 208.524C156.684 206.633 163.433 203.84 169.745 200.204L170.473 199.767C176.494 196.189 182.051 191.884 186.996 186.938C192 181.935 196.364 176.262 200 170.124L200.262 169.687C203.898 163.375 206.691 156.596 208.611 149.585C210.502 142.545 211.433 135.302 211.433 128H256ZM216.669 135.04C215.564 139.229 217.978 143.535 222.109 144.756L237.265 148.829L225.978 129.28C225.774 129.251 225.6 129.193 225.396 129.193H223.331C222.313 129.338 221.324 129.658 220.393 130.211C218.531 131.258 217.222 132.975 216.669 135.04ZM238.138 161.135C237.964 161.745 238.051 162.356 238.371 162.88C238.691 163.404 239.185 163.811 239.796 163.956C240.407 164.131 241.018 164.044 241.571 163.724C242.094 163.404 242.473 162.909 242.647 162.327C242.793 161.745 242.734 161.105 242.414 160.582C242.124 160.087 241.687 159.738 241.164 159.564C241.105 159.535 241.047 159.535 241.018 159.505C239.738 159.156 238.458 159.884 238.138 161.135ZM240.174 156.131C240.494 156.655 240.989 157.062 241.6 157.207C242.822 157.527 244.102 156.8 244.451 155.578C244.596 154.967 244.538 154.356 244.218 153.833C243.898 153.309 243.404 152.902 242.822 152.756C242.211 152.582 241.6 152.669 241.047 152.989C240.524 153.309 240.145 153.804 239.971 154.385C239.796 154.967 239.854 155.607 240.174 156.131ZM238.254 151.535L231.418 149.702L228.393 160.931L235.229 162.764L238.254 151.535ZM224.582 147.869L222.284 147.258L219.287 158.487L221.556 159.098L224.582 147.869ZM223.854 159.709L226.153 160.32L229.178 149.091L226.88 148.48L223.854 159.709ZM219.694 147.898L213.236 150.836L217.367 156.596L219.694 147.898ZM212.014 161.396C210.182 162.473 208.844 164.189 208.291 166.255C207.418 169.484 208.669 172.771 211.171 174.691L212.916 175.709C213.091 175.796 213.294 175.855 213.469 175.913L233.018 164.625L228.567 163.433L217.804 160.553C215.825 160.058 213.789 160.378 212.014 161.396ZM211.054 149.236L218.734 145.745C215.098 143.36 213.207 138.822 214.4 134.4C214.953 132.305 216.116 130.502 217.745 129.164H213.731C213.614 135.942 212.713 142.691 211.054 149.236ZM202.822 169.833L206.313 171.84C205.614 169.92 205.469 167.767 206.022 165.615C206.749 162.938 208.436 160.727 210.851 159.331C212.276 158.516 213.847 158.051 215.447 157.964L210.56 151.098C208.698 157.644 206.109 163.927 202.822 169.833ZM144.611 215.913C141.178 216.815 138.764 219.956 138.793 223.505V232.553C138.793 234.647 139.607 236.625 141.091 238.109C142.574 239.593 144.553 240.407 146.647 240.407C147.316 240.407 147.985 240.32 148.684 240.146L156.276 238.109L149.934 214.487L144.611 215.913ZM158.545 237.498L166.138 235.462C166.836 235.287 167.476 235.025 168.029 234.676C169.862 233.629 171.171 231.913 171.694 229.905C172.247 227.869 171.956 225.745 170.909 223.942L166.4 216.116C164.625 213.033 160.989 211.52 157.527 212.451L152.204 213.876L158.545 237.498ZM157.033 244.945C156.218 244.48 155.258 244.364 154.356 244.596C153.454 244.829 152.669 245.411 152.204 246.255C151.942 246.72 151.767 247.215 151.738 247.738L158.167 246.022C157.905 245.556 157.498 245.207 157.033 244.945ZM159.36 249.658L158.982 248.233L149.905 250.676L149.585 249.542C149.178 248.029 149.382 246.458 150.167 245.091C150.953 243.724 152.233 242.764 153.745 242.356C154.996 242.007 156.276 242.095 157.44 242.56L156.858 240.436L149.265 242.473C148.364 242.705 147.491 242.822 146.618 242.822C143.884 242.822 141.324 241.775 139.404 239.826C137.484 237.906 136.407 235.316 136.407 232.611V223.564C136.407 218.938 139.52 214.865 144 213.702L149.324 212.276L149.033 211.142C142.545 212.8 135.854 213.673 129.164 213.76V253.673C139.374 253.527 149.527 252.189 159.36 249.658ZM189.789 237.382L169.833 202.822C163.985 206.08 157.76 208.669 151.331 210.502L151.622 211.636L156.945 210.211C161.396 209.018 166.138 210.967 168.465 214.982L172.974 222.807C174.342 225.164 174.691 227.927 173.993 230.575C173.294 233.222 171.607 235.433 169.222 236.771C168.494 237.207 167.651 237.556 166.749 237.789L159.156 239.826L160.873 246.284C160.902 246.371 160.931 246.429 160.931 246.516L161.222 247.651L161.6 249.076C171.462 246.313 180.916 242.385 189.789 237.382ZM205.265 227.055L189.702 211.491L184.669 206.458C181.44 203.229 181.44 197.964 184.669 194.735L188.887 190.516L187.811 189.44C183.011 194.124 177.658 198.225 171.898 201.658L191.825 236.218C196.509 233.455 200.989 230.4 205.265 227.055ZM208.989 210.647L206.458 208.116C206.342 208.989 206.022 209.833 205.527 210.56L208.145 213.178L208.989 212.335C209.222 212.102 209.338 211.811 209.338 211.491C209.338 211.171 209.222 210.88 208.989 210.647ZM210.705 209.047C211.171 209.455 211.898 209.425 212.334 208.989L213.178 208.145L210.56 205.527C209.804 206.022 208.96 206.342 208.116 206.458L210.705 209.047ZM212.334 200.582L207.273 195.549L206.429 196.393C204.858 197.964 202.793 198.836 200.582 198.836C200.553 198.836 200.524 198.836 200.465 198.836L204.858 203.229C206.254 204.509 208.436 204.48 209.804 203.113L212.334 200.582ZM203.113 204.771L198.807 200.465C198.836 202.647 198.022 204.8 196.393 206.458L195.549 207.302L200.582 212.335L203.113 209.804C203.782 209.135 204.16 208.233 204.16 207.302C204.16 206.371 203.782 205.469 203.113 204.771ZM208.989 190.516L204.8 186.327C203.665 185.193 202.182 184.582 200.611 184.582C199.011 184.582 197.527 185.193 196.422 186.327L192.233 190.516L195.985 194.269L196.422 194.705C197.556 195.84 199.04 196.451 200.64 196.451C202.211 196.451 203.724 195.84 204.829 194.705L208.989 190.516ZM190.516 192.204L186.327 196.393C184 198.72 184.029 202.473 186.327 204.8L190.516 208.989L194.705 204.8C197.004 202.502 197.033 198.778 194.764 196.451L190.516 192.204ZM208.989 224.058L193.891 208.96L192.204 210.647L207.127 225.571C207.738 225.076 208.349 224.582 208.989 224.058ZM212.538 220.916L203.927 212.305L202.24 213.993L210.734 222.487C211.374 221.993 211.956 221.469 212.538 220.916ZM216 217.658L211.345 213.004C211.171 213.353 210.938 213.702 210.647 213.993L209.804 214.836L214.284 219.316C214.865 218.764 215.418 218.211 216 217.658ZM219.316 214.284L214.836 209.804L213.993 210.647C213.702 210.938 213.353 211.171 213.004 211.345L217.658 216C218.211 215.418 218.764 214.865 219.316 214.284ZM222.516 210.764L214.022 202.269L212.334 203.956L220.945 212.567C221.469 211.956 221.993 211.375 222.516 210.764ZM225.6 207.127L210.676 192.204L208.989 193.891L224.087 208.989C224.582 208.349 225.076 207.738 225.6 207.127ZM236.218 191.825L211.869 177.775C211.171 177.455 210.502 177.076 209.891 176.64L201.629 171.869C198.196 177.629 194.094 182.982 189.44 187.753L190.545 188.858L194.734 184.669C196.305 183.098 198.371 182.225 200.582 182.225C202.793 182.225 204.887 183.098 206.458 184.64L212.334 190.516L227.084 205.265C230.4 200.989 233.454 196.509 236.218 191.825ZM245.847 163.229C245.614 162.822 245.324 162.415 245.033 162.065C245.004 162.356 244.974 162.647 244.887 162.909C244.887 162.909 244.887 162.909 244.887 162.938C244.567 164.131 243.811 165.149 242.705 165.76C241.629 166.371 240.378 166.545 239.156 166.225C238.371 166.022 237.644 165.585 237.062 165.033L236.916 165.615L236.247 165.44L215.738 177.28L237.382 189.76C241.076 183.215 244.16 176.378 246.633 169.28C247.214 167.244 246.924 165.091 245.847 163.229ZM250.094 157.615C249.716 157.935 249.28 158.196 248.844 158.458C247.913 158.982 246.924 159.389 245.905 159.593C246.662 160.291 247.331 161.135 247.854 162.036C248.116 162.473 248.32 162.938 248.524 163.404C249.105 161.484 249.629 159.564 250.094 157.615ZM253.644 129.164H228.654L240.494 149.673L241.164 149.847L241.018 150.429C241.804 150.225 242.618 150.225 243.433 150.429C244.625 150.749 245.644 151.535 246.254 152.611C246.894 153.687 247.04 154.938 246.72 156.16C246.633 156.451 246.545 156.713 246.4 156.975C246.836 156.829 247.273 156.625 247.68 156.364C249.513 155.287 250.851 153.6 251.404 151.535C252.8 144.204 253.556 136.698 253.644 129.164Z" fill="#190000"/>
<path d="M114.124 33.0764C118.022 32.5236 121.047 29.6727 122.007 26.0945C122.327 24.9018 122.415 23.6218 122.24 22.3127L122.065 21.1491L103.215 23.7964L104.698 34.3855L114.124 33.0764ZM119.971 23.8545C119.884 27.2873 117.324 30.2836 113.804 30.7782L106.705 31.7673L105.891 25.8036L119.971 23.8545ZM128 0H126.836C116.073 0.116364 105.309 1.57091 94.8945 4.36364C84.48 7.15636 74.4436 11.2582 65.0473 16.5527L64.0291 17.1345C63.9127 17.1927 63.7964 17.28 63.68 17.3382L63.0109 17.7164C53.7018 23.2145 45.1491 29.8473 37.5273 37.4691C29.9055 45.12 23.2436 53.6727 17.7745 62.9527L17.5418 63.36C17.4255 63.5636 17.3091 63.7673 17.1927 63.9709L16.6109 64.9891C15.1273 67.6364 13.7309 70.3127 12.4218 73.0473H12.3927C12.3927 73.0764 12.3636 73.1345 12.3636 73.1636C9.07636 80.1455 6.4 87.3891 4.39273 94.8364V94.8655C1.57091 105.309 0.116364 116.073 0 126.836V128H44.6255C44.6255 120.727 45.5855 113.484 47.4473 106.473V106.444C49.3382 99.4036 52.1309 92.6255 55.7673 86.3418L56.2036 85.6145C59.6364 79.7964 63.7964 74.3855 68.5673 69.5564L69.5273 68.5964C74.56 63.6509 80.2036 59.3455 86.3127 55.8255L86.7782 55.5636C92.9745 52.0436 99.5782 49.3382 106.415 47.5055C113.455 45.6145 120.698 44.6545 128 44.6545V0ZM126.807 34.5891L113.571 36.4509L102.982 37.9345C86.9236 40.2036 79.6218 30.8945 77.6436 27.7818L78.8655 27.0836L82.4436 31.0109L84.1891 29.44L80.96 25.8909L85.12 23.4764C85.12 23.6509 85.1491 23.8255 85.1782 24.0291C85.5273 26.5309 87.8545 28.2764 90.3564 27.9273C91.5782 27.7527 92.6545 27.1127 93.3818 26.1527C94.1091 25.1636 94.4291 23.9709 94.2545 22.7491C94.08 21.5273 93.44 20.4509 92.48 19.7236C92.3636 19.6364 92.2182 19.5491 92.0727 19.4618L97.6873 16.2036L98.9964 25.6C99.2582 27.4909 98.7636 29.3818 97.6291 30.8945C96.4655 32.4364 94.8073 33.4255 92.8873 33.6873L93.2073 36.0145C95.7382 35.6655 97.9491 34.3564 99.4909 32.32C101.033 30.2836 101.673 27.7818 101.324 25.2509L99.8982 15.0691C103.127 14.0218 114.589 10.56 126.807 10.3273V34.5891ZM87.5345 22.8073C87.6218 22.5455 87.7382 22.2836 87.9127 22.0509C88.0291 21.8764 88.1745 21.76 88.32 21.6436L88.8436 21.3527C89.0182 21.2945 89.1927 21.2364 89.3964 21.2073C89.9782 21.12 90.5891 21.2655 91.0545 21.6436C91.52 21.9927 91.84 22.5164 91.9273 23.1273C92.0145 23.7091 91.8691 24.32 91.4909 24.7855C91.1418 25.2509 90.6182 25.5709 90.0073 25.6582C88.7855 25.8327 87.6509 24.96 87.4764 23.7673C87.4473 23.3891 87.4473 23.0982 87.5345 22.8073ZM126.807 2.35636V8C116.771 8.17455 107.404 10.4145 102.255 11.8982C106.56 7.44727 112.058 4.24727 118.08 2.76364C121.018 2.53091 123.898 2.38545 126.807 2.35636ZM62.9527 61.2945C60.8 59.1418 59.6364 56.2909 59.6364 53.2655C59.6364 50.24 60.8291 47.3891 62.9527 45.2364L69.5564 38.6327L72.2327 41.3091C74.3855 43.4618 75.5491 46.3127 75.5491 49.3382C75.5491 52.3636 74.3564 55.2145 72.2327 57.3382L69.7018 59.8691L65.6291 63.9127L62.9527 61.2945ZM63.9418 65.6291L60.7418 68.8291L57.3382 72.2327C52.9164 76.6545 45.7309 76.6545 41.3091 72.2327L38.6327 69.5564L45.2364 62.9527C47.3891 60.8 50.24 59.6364 53.2655 59.6364C56.2909 59.6364 59.1418 60.8291 61.2945 62.9527L63.9418 65.6291ZM61.2945 43.5782C60.7418 44.1309 60.2473 44.7127 59.8109 45.3236C57.6291 44.0145 55.1273 43.3455 52.5673 43.3455H48.1164C48.2618 41.7745 49.2218 40.1745 51.1418 38.1964C51.2873 38.1091 51.4618 38.0218 51.6073 37.9055C56.6109 34.5891 62.3709 34.7927 66.5018 38.4L61.2945 43.5782ZM52.5673 45.7018C54.72 45.7018 56.7855 46.2836 58.6182 47.36C57.7455 49.1927 57.28 51.2 57.28 53.2655C57.28 54.9818 57.6 56.64 58.1818 58.1818C56.64 57.6 54.9818 57.28 53.2655 57.28C51.2 57.28 49.1927 57.7455 47.36 58.6182C46.2545 56.7855 45.7018 54.72 45.7018 52.5673V45.7018H52.5673ZM45.9636 41.8909C45.8473 42.3564 45.76 42.8218 45.7309 43.3455H43.3164V45.76C42.0073 45.8473 40.8145 46.2836 39.7091 46.9236C40.2618 44.48 40.4364 41.9782 40.4945 40.5527C41.92 40.4945 44.4218 40.32 46.8945 39.7673C46.4873 40.4073 46.1673 41.1345 45.9636 41.8909ZM43.3455 48.0873V52.5382C43.3455 55.1273 44.0436 57.6 45.3236 59.7818C44.7127 60.2182 44.1309 60.7127 43.5782 61.2655L38.4 66.4727C34.7927 62.3418 34.5891 56.6109 37.9055 51.5782C37.9927 51.4327 38.1091 51.2873 38.1964 51.1127C40.1745 49.1927 41.7745 48.2327 43.3455 48.0873ZM11.5782 80.7564C11.9564 87.3891 15.0982 93.5854 20.1018 97.8618L6.95273 94.3418C8.23273 89.7454 9.77454 85.2073 11.5782 80.7564ZM6.34182 96.6109L26.8218 102.109L24.8145 103.273C23.3018 104.145 22.2836 105.542 21.8764 107.113C21.8182 107.345 21.76 107.578 21.7309 107.811C21.5564 107.433 21.3818 107.055 21.1782 106.705C19.7527 104.233 17.4255 102.458 14.6618 101.702C12.2182 101.033 9.74545 101.295 7.56364 102.255L5.73091 99.0836C5.93455 98.2691 6.13818 97.4255 6.34182 96.6109ZM32.9309 101.295L34.9382 100.131C36.8291 99.0255 39.2727 99.6945 40.3782 101.585L42.3564 105.018L38.9236 106.996C37.9927 107.52 36.9164 107.665 35.8982 107.404C34.88 107.142 34.0073 106.473 33.4836 105.542L33.4545 105.484L32.3491 103.535L36.0436 104.524L36.6545 102.255L32.9309 101.295ZM33.7455 98.1236L31.68 99.3164L32.6982 95.5636L30.4291 94.9527L29.44 98.6182L28.3055 96.6691C27.2 94.7782 27.8691 92.3345 29.76 91.2291L33.1927 89.2509L35.1709 92.6836C36.3055 94.5745 35.6364 97.0182 33.7455 98.1236ZM27.9273 104.175L26.9382 107.84L29.2073 108.451L30.2255 104.698L31.4182 106.764C32.5236 108.655 31.8545 111.098 29.9636 112.204L26.5309 114.182L24.5527 110.749C23.4473 108.858 24.1164 106.415 26.0073 105.309L27.9273 104.175ZM19.9564 114.211C19.9564 114.24 19.9564 114.24 19.9564 114.211L18.2109 120.698L8.72727 104.291C10.3564 103.622 12.1891 103.476 14.0218 103.971C16.1745 104.553 17.9782 105.949 19.1127 107.869C20.2473 109.818 20.5382 112.058 19.9564 114.211ZM4.97455 102.487L5.52727 103.418C5.23636 103.651 4.94545 103.884 4.65455 104.116C4.77091 103.593 4.85818 103.04 4.97455 102.487ZM3.78182 109.905C4.27636 108.073 5.32364 106.56 6.72 105.484L16.1745 121.891L9.68727 120.145C7.53454 119.564 5.73091 118.167 4.59636 116.247C3.49091 114.298 3.2 112.058 3.78182 109.905ZM42.2691 126.836H30.6618C29.6145 126.72 28.5673 126.72 27.4909 126.836H2.35636C2.38545 123.811 2.53091 120.785 2.76364 117.76C4.21818 120.058 6.42909 121.716 9.07636 122.444L19.4327 125.207L22.1964 114.851C22.4291 113.949 22.5745 113.018 22.5745 112.116L25.6291 117.411L31.0982 114.24C32.9309 113.193 34.0364 111.331 34.24 109.353C34.56 109.498 34.88 109.615 35.2291 109.702C36.8582 110.138 38.5745 109.905 40.0291 109.062L45.0618 106.153C43.3164 112.902 42.3855 119.855 42.2691 126.836ZM45.2945 105.455L42.3855 100.422C41.3091 98.5891 39.4764 97.4836 37.4982 97.28C38.3127 95.4764 38.2836 93.3236 37.2364 91.4909L34.0655 85.9927L28.5964 89.1636C25.5709 90.9091 24.5236 94.8073 26.2691 97.8036L27.2873 99.5491C17.4545 95.4182 11.8982 84.5964 14.5745 74.0073C15.8255 71.36 17.1927 68.7709 18.6182 66.2109L53.1782 86.1673C49.7745 92.2473 47.1273 98.7345 45.2945 105.455ZM54.3418 84.1309L19.7818 64.1455C24.9018 55.4473 31.0982 47.3891 38.1673 40.1745C38.1091 42.1818 37.7891 47.5636 35.9564 50.2691C32.0291 56.1745 32.3782 63.2145 36.7418 68.1309L35.3164 69.5564L39.6509 73.8909C44.9745 79.2145 53.6727 79.2145 59.0255 73.8909L61.5564 71.36L62.6909 72.4945C59.5782 76.1309 56.8145 80 54.3418 84.1309ZM67.8691 66.9091C67.6945 67.0836 67.5491 67.2291 67.3745 67.4036C67.2291 67.5491 67.0545 67.7236 66.9091 67.8691L64.1455 70.6327L63.2145 69.7018L65.6 67.3164L67.2582 65.6582L69.6436 63.2727L70.5745 64.2036L67.8691 66.9091ZM72.4655 62.6909L71.3309 61.5564L73.8618 59.0255C76.4509 56.4364 77.8764 53.0036 77.8764 49.3382C77.8764 45.6727 76.4509 42.24 73.8618 39.6509L69.5273 35.3164L68.1018 36.7418C63.2145 32.3782 56.1455 32.0291 50.24 35.9564C47.5055 37.76 42.1236 38.1091 40.1164 38.1964C47.3309 31.1273 55.4182 24.96 64.1164 19.7818L84.0727 54.3709C80 56.8145 76.1018 59.6073 72.4655 62.6909ZM105.804 45.2073C98.9673 47.04 92.3636 49.7164 86.1673 53.1782L66.2109 18.6182C75.4327 13.4109 85.2654 9.39636 95.5054 6.66182C99.9564 5.46909 104.495 4.50909 109.033 3.81091C104.785 6.16727 101.004 9.36727 98.0073 13.2655L97.3382 13.6727L87.7964 19.2C87.5345 19.3164 87.2727 19.4618 87.04 19.6364L74.5309 26.9091L75.0255 27.8982C75.1127 28.0436 82.8509 43.1709 103.36 40.2909L116.305 38.4582C118.662 40.1745 121.222 41.4836 123.927 42.3855C117.76 42.6764 111.709 43.6364 105.804 45.2073ZM126.807 40.7564C124.335 40.1745 121.978 39.2436 119.796 37.9636L126.807 36.9745V40.7564Z" fill="#190000"/>
<path d="M191.302 36.9164C190.545 36.16 190.545 34.9091 191.302 34.1527C192.058 33.3964 193.309 33.3964 194.065 34.1527C194.822 34.9091 194.822 36.16 194.065 36.9454C193.309 37.7018 192.058 37.7018 191.302 36.9164ZM211.375 127.273C211.316 120.291 210.385 113.367 208.582 106.589C208.553 106.531 208.553 106.473 208.524 106.415C208.495 106.356 208.495 106.298 208.495 106.24C206.662 99.4618 203.985 92.9454 200.524 86.8363L200.233 86.3127C196.684 80.1745 192.378 74.5018 187.404 69.4691L186.793 68.8582C186.734 68.8 186.705 68.7709 186.647 68.7127L186.502 68.5673C181.469 63.6218 175.825 59.3163 169.716 55.7673C163.404 52.1309 156.654 49.3382 149.614 47.4473C142.778 45.6145 135.738 44.6545 128.698 44.5964H128.058V0C128.407 0 128.727 0 129.076 0H129.222C140.014 0.116364 150.778 1.57091 161.164 4.36364C171.549 7.15636 181.585 11.2582 191.011 16.5527L192.029 17.1345C192.116 17.1927 192.175 17.2218 192.262 17.2509L193.047 17.7164C202.356 23.2145 210.909 29.8473 218.531 37.4691C226.153 45.0909 232.815 53.6727 238.284 62.9527L238.865 63.9709C238.924 64.0873 238.982 64.2036 239.069 64.2909L239.476 64.96C244.771 74.3563 248.873 84.3927 251.665 94.8073C254.458 105.222 255.913 115.956 256.029 126.749V127.709C256.029 127.796 256.029 127.855 256.029 127.942H211.375V127.273ZM247.011 126.807C246.924 117.207 245.644 107.636 243.258 98.3272L239.331 99.3745C240.145 100.073 240.727 101.004 240.989 102.051C241.367 103.447 241.164 104.873 240.465 106.124C240.378 106.298 240.262 106.473 240.145 106.618C241.6 107.258 242.735 108.509 243.171 110.138C243.549 111.505 243.345 112.96 242.618 114.211C241.891 115.462 240.756 116.335 239.36 116.713C237.964 117.091 236.538 116.887 235.287 116.189C234.298 115.607 233.513 114.735 233.047 113.687C232.524 114.065 231.913 114.356 231.244 114.531C229.876 114.909 228.422 114.705 227.171 114.007C226.153 113.425 225.396 112.553 224.931 111.505C224.407 111.884 223.796 112.175 223.127 112.378C220.538 113.076 217.862 111.738 216.815 109.353C216.291 109.731 215.68 110.051 215.011 110.225C213.876 110.516 212.742 110.458 211.753 110.051C212.945 115.549 213.585 121.193 213.644 126.807H223.098C223.884 126.72 224.669 126.72 225.455 126.807H247.011ZM238.72 102.662C238.516 101.876 238.022 101.236 237.324 100.829C236.655 100.451 235.869 100.335 235.113 100.509L234.996 100.538C233.949 100.829 233.193 101.644 232.902 102.604C232.902 102.633 232.873 102.662 232.873 102.691C232.756 103.185 232.756 103.68 232.873 104.204C233.309 105.804 234.967 106.764 236.567 106.327C237.353 106.124 237.993 105.629 238.4 104.931C238.836 104.262 238.924 103.447 238.72 102.662ZM237.207 108.625C236.422 108.829 235.782 109.324 235.375 110.022C235.258 110.225 235.171 110.4 235.113 110.604C235.084 110.691 235.055 110.778 235.055 110.865C234.938 111.331 234.967 111.825 235.084 112.291C235.287 113.076 235.782 113.716 236.48 114.124C237.178 114.531 237.993 114.647 238.778 114.415C239.564 114.211 240.204 113.716 240.611 113.018C241.018 112.32 241.105 111.505 240.902 110.72C240.465 109.149 238.807 108.189 237.207 108.625ZM224.815 102.051C224.931 102.516 225.164 102.953 225.484 103.302C225.542 103.36 225.629 103.418 225.687 103.505C225.833 103.651 226.036 103.767 226.211 103.884C226.909 104.291 227.724 104.378 228.509 104.175C229.295 103.971 229.935 103.476 230.342 102.778C230.749 102.08 230.865 101.265 230.662 100.48C230.545 99.9854 230.284 99.5782 229.964 99.2291C229.905 99.1709 229.847 99.1127 229.76 99.0254C229.033 98.3563 227.985 98.0654 226.938 98.3272C225.338 98.7927 224.378 100.451 224.815 102.051ZM224.698 106.415C224.582 105.949 224.349 105.513 224.029 105.164C223.971 105.105 223.884 105.047 223.825 104.96C223.68 104.815 223.505 104.698 223.302 104.582C222.604 104.175 221.789 104.058 221.004 104.291C219.404 104.727 218.444 106.385 218.88 107.985C219.316 109.585 220.975 110.545 222.575 110.109C223.36 109.905 224 109.411 224.407 108.713C224.524 108.538 224.611 108.335 224.669 108.131C224.669 108.073 224.698 108.044 224.698 107.985C224.698 107.927 224.727 107.869 224.756 107.84C224.844 107.375 224.844 106.88 224.698 106.415ZM226.996 110.138C227.2 110.924 227.695 111.564 228.393 111.971C229.091 112.378 229.905 112.465 230.662 112.262C231.447 112.058 232.087 111.564 232.495 110.865C232.611 110.662 232.698 110.487 232.756 110.255C232.756 110.225 232.785 110.167 232.785 110.138C232.785 110.08 232.815 110.051 232.815 109.993C232.931 109.527 232.902 109.033 232.785 108.567C232.349 106.967 230.691 106.007 229.091 106.444C228.305 106.647 227.665 107.142 227.258 107.869C227.142 108.044 227.084 108.247 226.996 108.422C226.967 108.538 226.938 108.625 226.909 108.713C226.851 109.207 226.851 109.673 226.996 110.138ZM236.567 94.5745C236.131 92.9745 234.473 92.0145 232.873 92.4509C232.087 92.6545 231.447 93.1491 231.04 93.8473C230.633 94.5454 230.516 95.36 230.749 96.1454C230.865 96.64 231.127 97.0763 231.447 97.4254C231.505 97.4836 231.564 97.5418 231.593 97.5709C231.767 97.7163 231.942 97.8618 232.145 97.9782C232.844 98.3854 233.658 98.4727 234.444 98.2691C236.044 97.8327 236.975 96.1745 236.567 94.5745ZM234.385 86.4873C234.182 85.7018 233.687 85.0618 232.989 84.6545C232.291 84.2473 231.476 84.1309 230.72 84.3636C229.935 84.5673 229.295 85.0618 228.887 85.76C228.48 86.4582 228.364 87.2727 228.596 88.0582C229.033 89.6582 230.691 90.6182 232.291 90.1818C233.076 89.9782 233.716 89.4836 234.124 88.7854C234.502 88.0582 234.589 87.2436 234.385 86.4873ZM228.48 92.3927C228.044 90.7927 226.385 89.8327 224.785 90.2691C224 90.4727 223.36 90.9673 222.953 91.6654C222.545 92.3636 222.458 93.1782 222.662 93.9636C222.865 94.7491 223.36 95.3891 224.058 95.7963C224.756 96.2036 225.571 96.2909 226.356 96.0872C227.404 95.7963 228.189 94.9818 228.48 93.9927V93.9636C228.48 93.9345 228.48 93.9345 228.48 93.9054C228.596 93.44 228.596 92.9163 228.48 92.3927ZM222.545 98.3272C222.4 97.8327 222.167 97.3963 221.818 97.0472C221.789 97.0182 221.76 96.9891 221.702 96.9309C220.975 96.2327 219.898 95.9127 218.851 96.2036C217.251 96.64 216.291 98.2982 216.727 99.8982C216.844 100.364 217.076 100.8 217.396 101.149C217.455 101.207 217.542 101.265 217.6 101.353C217.745 101.498 217.92 101.615 218.124 101.731C218.822 102.138 219.636 102.225 220.422 102.022C222.022 101.585 222.982 99.9272 222.545 98.3272ZM249.658 96.6109L245.556 97.7163C248 107.229 249.28 117.004 249.396 126.807H253.644C253.527 116.625 252.189 106.473 249.658 96.6109ZM237.382 66.2109L233.687 68.3345C238.516 76.8873 242.269 85.9927 244.916 95.4473L249.018 94.3418C246.313 84.5382 242.415 75.0836 237.382 66.2109ZM230.487 59.2873L215.738 67.8109L220.916 72.9891L224.291 71.04L235.927 64.32C234.88 63.1563 233.018 61.2654 230.487 59.2873ZM208.815 60.8873L213.993 66.0654L228.393 57.7454C226.24 56.2909 223.738 54.8945 220.975 53.8473L208.815 60.8873ZM217.92 52.9163C213.178 51.7236 207.825 51.7527 202.124 54.1964L207.098 59.1709L217.92 52.9163ZM200.495 25.3964C200.902 25.9491 201.105 26.6182 201.135 27.2873C201.978 27.3454 202.793 27.6654 203.433 28.3054C204.073 28.9454 204.422 29.7891 204.451 30.6327C205.324 30.6909 206.138 31.04 206.749 31.6509C208.116 33.0182 208.116 35.2873 206.749 36.6545L205.905 35.8109L206.749 36.6545C205.382 38.0218 203.113 38.0218 201.745 36.6545L202.589 35.8109L201.745 36.6545L199.244 34.1527C200.349 38.9236 199.244 44.1018 195.869 48L200.291 52.4218C213.469 46.3418 225.164 52.3636 232.087 57.7163C227.578 51.0545 222.458 44.8582 216.785 39.1564C211.782 34.1236 206.313 29.4982 200.495 25.3964ZM159.04 16.64C162.036 13.2655 165.993 10.8218 170.414 9.71636C167.534 8.66909 164.596 7.73818 161.658 6.92363L159.04 16.64ZM154.211 25.6291C154.211 25.6291 154.211 25.6 154.211 25.6291C155.549 20.6254 152.582 15.4764 147.578 14.1382C145.164 13.4982 142.633 13.8182 140.451 15.0691C138.269 16.32 136.727 18.3564 136.087 20.7709C136.087 20.7709 136.087 20.7709 136.087 20.8C135.447 23.2145 135.767 25.7454 137.018 27.8982C138.269 30.08 140.305 31.6218 142.72 32.2909L163.142 37.76C165.556 38.4 168.087 38.08 170.269 36.8291C172.451 35.5782 173.993 33.5418 174.633 31.1273C175.273 28.7127 174.953 26.1818 173.702 24C172.451 21.8182 170.414 20.2764 168 19.6364C162.996 18.2982 157.847 21.2654 156.509 26.2691L154.211 25.6291ZM150.4 4.36364C153.658 7.53454 155.869 11.6364 156.771 16.0291L159.36 6.34182C156.393 5.58545 153.396 4.91636 150.4 4.36364ZM147.811 38.9236C146.56 36.7418 144.524 35.2 142.109 34.56C139.084 33.7454 136.553 31.7964 134.982 29.0909C133.411 26.3854 133.004 23.2145 133.818 20.1891V20.16C134.633 17.1345 136.582 14.6036 139.287 13.0327C141.993 11.4618 145.164 11.0545 148.189 11.8691C150.72 12.5382 152.844 13.9927 154.356 15.9127C153.164 10.9382 150.109 6.45818 145.658 3.63636C140.189 2.82182 134.691 2.41455 129.164 2.35636V42.2691C135.825 42.3564 142.487 43.2291 148.945 44.8582C149.265 42.8218 148.858 40.7564 147.811 38.9236ZM151.214 41.3673C152.058 40.4073 153.076 39.5636 154.211 38.8945C154.705 38.6036 155.2 38.3709 155.694 38.1673L148.916 36.3636C149.265 36.8 149.556 37.2654 149.847 37.7309C150.516 38.8945 150.953 40.1164 151.214 41.3673ZM169.833 53.1782L189.789 18.5891C184.989 15.8836 180.014 13.4982 174.924 11.4327C169.629 11.6655 164.742 13.9927 161.251 17.7164C163.52 16.8145 166.08 16.6109 168.611 17.28C171.636 18.0945 174.167 20.0436 175.738 22.7491C177.309 25.4545 177.716 28.6254 176.902 31.6509C176.087 34.6764 174.138 37.2073 171.433 38.7782C168.727 40.3491 165.556 40.7564 162.531 39.9418C160.116 39.3018 157.585 39.6218 155.404 40.8727C153.571 41.92 152.174 43.5491 151.389 45.4691C157.818 47.36 164.014 49.92 169.833 53.1782ZM185.105 34.9673C186.298 33.7745 186.444 31.9418 185.6 30.5745L180.276 39.7964L183.156 36.9164L185.105 34.9673L186.153 36.0145L185.105 34.9673ZM174.604 56.0582C173.905 54.72 173.498 53.2654 173.411 51.7236L171.898 54.3709C172.8 54.8945 173.702 55.4763 174.604 56.0582ZM183.709 62.4873C183.389 59.4036 184.407 56.2036 186.764 53.8473L193.455 47.1854C198.371 42.24 198.662 34.4145 194.269 29.1491L193.455 29.9636L191.796 28.3054L195.142 24.96L196.8 26.6182L195.956 27.4618L203.462 34.9673C203.927 35.4327 204.684 35.4327 205.12 34.9673C205.585 34.5018 205.585 33.7454 205.12 33.28C204.887 33.0473 204.596 32.9309 204.305 32.9309C203.985 32.9309 203.695 33.0473 203.462 33.28L201.804 31.6218C202.269 31.1564 202.269 30.4 201.804 29.9345C201.367 29.4982 200.669 29.4691 200.204 29.8473C200.175 29.8764 200.145 29.9054 200.116 29.9345L198.458 28.2764C198.487 28.2473 198.516 28.2182 198.545 28.1891C198.924 27.7236 198.895 27.0254 198.458 26.5891C197.993 26.1236 197.236 26.1236 196.771 26.5891L195.113 24.9309C196.044 24 197.353 23.7091 198.545 24.0291C196.364 22.5454 194.124 21.12 191.825 19.7527L186.851 28.3636L186.88 28.3927C188.276 29.6436 190.429 29.6145 191.767 28.2764L193.425 29.9345C192.058 31.3018 190.196 31.8545 188.422 31.5927C188.684 33.3673 188.131 35.2291 186.764 36.5964L184.814 38.5454L178.153 45.2073C176.582 46.7782 175.738 48.8436 175.738 51.0545C175.738 53.2654 176.611 55.3309 178.153 56.9018L183.709 62.4873ZM194.705 73.4836C200.233 79.0109 213.585 75.3745 218.385 73.8327L194.269 49.6873L188.422 55.5345C185.251 58.7054 185.193 63.8254 188.247 67.0545C188.364 67.1709 188.48 67.2873 188.596 67.4036C188.742 67.5491 188.887 67.6945 189.033 67.84L194.705 73.4836ZM201.629 84.1309L212.567 77.8182C207.855 78.8073 202.065 79.36 197.469 77.8182C198.953 79.8545 200.349 81.9491 201.629 84.1309ZM212.305 99.84C212.975 99.6654 213.644 99.6073 214.284 99.6945C213.993 97.1054 215.651 94.6327 218.24 93.9345C218.909 93.76 219.578 93.7018 220.218 93.7891C220.102 92.6545 220.335 91.52 220.916 90.5018C221.644 89.2509 222.778 88.3782 224.175 88C224.844 87.8254 225.513 87.7673 226.153 87.8545C226.036 86.72 226.269 85.5854 226.851 84.5673C227.578 83.3163 228.742 82.4436 230.109 82.0654C231.505 81.6873 232.931 81.8909 234.182 82.6182C235.433 83.3454 236.305 84.48 236.684 85.8764C237.062 87.2436 236.858 88.6982 236.16 89.9491C236.073 90.1236 235.956 90.2982 235.84 90.4436C237.295 91.0836 238.429 92.3345 238.865 93.9636C239.156 95.04 239.069 96.1454 238.749 97.1054L242.705 96.0582C240.116 86.8073 236.422 77.8763 231.709 69.4982L202.851 86.1382C205.615 91.0545 207.855 96.2327 209.6 101.615C210.24 100.8 211.2 100.16 212.305 99.84ZM214.487 107.956C215.273 107.753 215.913 107.258 216.32 106.56C216.727 105.862 216.844 105.047 216.611 104.262C216.495 103.796 216.262 103.36 215.942 103.011C215.884 102.953 215.796 102.895 215.738 102.807C215.593 102.662 215.389 102.545 215.215 102.429C214.516 102.022 213.702 101.905 212.916 102.138C211.345 102.545 210.415 104.145 210.764 105.716C210.764 105.745 210.793 105.804 210.793 105.833C210.793 105.891 210.822 105.92 210.822 105.978C211.316 107.462 212.916 108.364 214.487 107.956Z" fill="#190000"/>
<path d="M127.505 211.374C120.524 211.345 113.571 210.414 106.793 208.64L106.065 208.436C99.1709 206.574 92.5382 203.782 86.3127 200.204C84.8873 199.389 83.4909 198.516 82.1236 197.614C81.5418 197.091 80.9018 196.655 80.2327 196.335C76.3055 193.6 72.64 190.516 69.2364 187.142L68.3636 186.269C63.5055 181.294 59.2873 175.738 55.7964 169.687L55.5927 169.367C52.2182 163.462 49.6 157.149 47.7382 150.633L47.1855 148.567C45.4691 141.847 44.6255 134.953 44.5964 128.029H0C0 128.262 0 128.495 0 128.756V129.222C0.116364 140.015 1.57091 150.778 4.36364 161.164C7.15636 171.578 11.2582 181.614 16.5527 191.011L17.0182 191.854C17.0473 191.913 17.1055 191.971 17.1345 192.058L17.7164 193.076C23.2146 202.356 29.8473 210.938 37.4691 218.56C45.0909 226.182 53.6727 232.814 62.9527 238.313L63.9709 238.894C73.6873 244.48 84.0727 248.785 94.8364 251.665C105.658 254.574 116.8 256.029 127.971 256.029V211.374H127.505ZM104.087 210.327L105.455 210.676C105.571 210.705 105.687 210.734 105.804 210.764C105.92 210.793 106.065 210.822 106.182 210.88L107.52 211.229C108.422 211.462 108.975 212.422 108.713 213.324L105.775 224.32L99.0255 222.516L101.964 211.52C102.255 210.618 103.185 210.094 104.087 210.327ZM91.2 229.76L87.7964 228.858L97.7164 224.64L99.1418 225.018L91.2 229.76ZM100.218 227.084L98.9673 231.825L94.3709 230.604L100.218 227.084ZM113.804 238.254C112.785 240 110.691 240.931 108.655 240.378L88.5527 234.996C87.36 234.676 86.3709 233.92 85.7891 232.873C85.3818 232.174 85.1782 231.389 85.1782 230.574L113.804 238.254ZM101.236 232.436L102.516 227.694L105.833 233.658L101.236 232.436ZM109.004 234.531L104.524 226.473L105.949 226.851L112.436 235.462L109.004 234.531ZM66.7055 187.898C66.9382 188.131 67.1709 188.364 67.4036 188.596C69.9636 191.156 72.6691 193.542 75.5491 195.753C74.2109 196.044 72.9309 196.713 71.8837 197.76L73.5418 199.418C75.0255 197.934 77.2655 197.585 79.0982 198.371C80.7564 199.505 82.4146 200.611 84.16 201.629L82.8509 203.898L78.7491 199.796L77.0909 201.454L81.2509 205.614L80.6691 206.196C78.1091 204.334 74.5891 204.334 72.0291 206.196L70.7782 204.945L69.9927 205.702C60.9746 205.236 52.1309 207.36 44.3636 211.869C39.1855 206.72 34.5018 201.105 30.3127 195.113C30.3127 195.113 30.3127 195.084 30.2836 195.084C28.7418 192.873 27.2873 190.604 25.8909 188.305L35.6655 182.662C32.4655 188.684 33.3964 196.364 38.4873 201.454L44.2473 207.214C45.12 208 46.1964 208.407 47.3891 208.407C48.64 208.407 49.8036 207.913 50.7055 207.04C51.5782 206.167 52.0727 204.974 52.0727 203.724C52.0727 202.473 51.5782 201.309 50.7055 200.436C49.8327 199.534 48.64 199.069 47.3891 199.069C46.1382 199.069 44.9746 199.564 44.1018 200.436C43.52 201.018 43.1127 201.745 42.88 202.502L40.1746 199.796C34.88 194.502 34.88 185.862 40.1746 180.538C40.6691 180.044 41.1636 179.607 41.7164 179.2C42.6473 178.764 43.5491 178.269 44.3636 177.658C49.3382 175.476 55.36 176.436 59.4327 180.509L66.7055 187.898ZM78.7491 207.825C77.2364 208.669 75.3455 208.669 73.8327 207.825C75.3746 206.982 77.2364 206.982 78.7491 207.825ZM44.9746 203.782C44.9746 203.578 45.0036 203.375 45.0618 203.171C45.1782 202.793 45.3818 202.414 45.6727 202.124C46.1091 201.687 46.6909 201.454 47.3018 201.454C47.9127 201.454 48.4946 201.687 48.96 202.153C49.3964 202.589 49.6291 203.171 49.6291 203.782C49.6291 204.393 49.3964 204.974 48.96 205.411C48.5236 205.847 47.9418 206.08 47.3309 206.08C46.72 206.08 46.1382 205.847 45.7018 205.411C45.2364 204.974 44.9746 204.393 44.9746 203.782ZM56.9309 175.942C54.8364 174.894 52.5673 174.313 50.2691 174.225L54.3418 171.869C55.1855 173.265 56.0291 174.604 56.9309 175.942ZM50.9382 165.556C51.6364 167.011 52.3927 168.436 53.1782 169.833L49.1055 172.189C50.1818 170.153 50.8218 167.913 50.9382 165.556ZM47.36 158.225L48.1455 161.164C49.6291 166.72 47.4473 172.422 43.0836 175.651C42.1527 176.058 41.28 176.582 40.4364 177.164C39.8255 177.425 39.1855 177.658 38.5164 177.833C34.9964 178.764 31.3309 178.298 28.1891 176.465C25.0473 174.633 22.7782 171.724 21.8473 168.204L21.0618 165.295C21.9636 166.138 22.9818 166.895 24.0582 167.535C25.28 168.262 26.5891 168.785 27.9273 169.135C30.6036 169.862 33.4255 169.862 36.16 169.135C36.3055 169.105 36.48 169.047 36.6255 168.989C39.5636 168.116 42.0364 166.458 43.9564 164.305C45.5273 162.589 46.6909 160.495 47.36 158.225ZM35.5782 166.865C33.2509 167.505 30.8364 167.476 28.5382 166.865C27.4036 166.545 26.2982 166.109 25.2218 165.498C22.4 163.869 20.3055 161.367 19.2291 158.342L45.44 151.331C46.6909 158.225 42.4436 165.033 35.5782 166.865ZM44.8582 149.062L18.6473 156.073C17.4255 149.207 21.6727 142.371 28.5382 140.538C35.4036 138.705 42.4727 142.487 44.8582 149.062ZM42.2691 129.193C42.2982 130.793 42.3564 132.393 42.4727 133.993C41.1927 132.044 39.5055 130.385 37.5564 129.193H42.2691ZM27.6073 129.193H30.5746C35.9855 129.804 40.7564 133.644 42.2691 139.2L43.0546 142.138C39.1564 138.444 33.4836 136.785 27.9273 138.269C22.3709 139.753 18.2691 144.029 16.7564 149.178L15.9709 146.24C14.0218 138.996 18.3564 131.52 25.6 129.571C26.2691 129.367 26.9382 129.251 27.6073 129.193ZM12.9455 146.502C12.9164 146.356 12.9164 146.182 12.8873 146.036C12.0436 140.451 11.6073 134.778 11.5782 129.164H20.6255C14.8364 132.8 11.8109 139.927 13.6727 146.851L16.2909 156.655C13.7018 156.684 11.3164 154.938 10.6182 152.32L10.3855 151.389C12.1018 150.458 13.12 148.596 12.9745 146.647C12.9745 146.618 12.9745 146.56 12.9455 146.502ZM3.69455 146.153C2.88 140.538 2.44364 134.865 2.38545 129.164H9.22182C9.25091 134.895 9.68727 140.655 10.56 146.327C10.56 146.356 10.5891 146.415 10.5891 146.444C10.6182 146.56 10.6182 146.676 10.6473 146.793C10.7345 147.636 10.3855 148.451 9.77455 149.004L9.51273 148.044C9.25091 147.113 8.66909 146.327 7.82546 145.833C6.98182 145.338 5.99273 145.222 5.06182 145.455C4.53818 145.6 4.07273 145.833 3.69455 146.153ZM4.85818 148.335C5.03273 148.044 5.29455 147.84 5.64364 147.753C5.96364 147.665 6.31273 147.724 6.63273 147.869C6.92364 148.044 7.12727 148.305 7.21455 148.625L8.34909 148.335L7.21455 148.625L7.53455 149.876L6.28364 150.196C5.61455 150.371 4.91636 149.964 4.71273 149.295C4.65455 149.004 4.68364 148.655 4.85818 148.335ZM6.63273 160.524C5.90546 157.847 5.29455 155.142 4.74182 152.407C4.82909 152.436 4.91636 152.465 5.00364 152.495C5.58546 152.64 6.25455 152.669 6.86546 152.495L6.57455 151.36L6.89455 152.495L8.11636 152.174L8.32 152.96L9.45455 152.669L8.32 152.989C9.36727 156.858 13.0327 159.331 16.9018 159.04L19.5491 168.873C20.6545 173.004 23.3018 176.436 26.9964 178.56C29.2946 179.898 31.8255 180.596 34.3855 180.684L18.6182 189.789C13.4109 180.567 9.36727 170.734 6.63273 160.524ZM30.3418 207.04C26.4727 202.24 22.9236 197.149 19.7818 191.825L23.7964 189.498C25.2218 191.855 26.7346 194.182 28.3055 196.422C30.2546 199.622 30.9818 203.404 30.3418 207.04ZM32.2327 209.309C32.8727 207.098 33.0764 204.771 32.8146 202.531C35.7527 206.255 38.8946 209.804 42.24 213.149C40.9018 214.022 39.5927 214.982 38.3127 216C36.2182 213.847 34.1818 211.607 32.2327 209.309ZM40 217.687C41.5127 216.494 43.0836 215.389 44.7418 214.371C52.5091 209.658 61.44 207.505 70.5455 208.116L71.0691 208.64C73.2509 210.822 76.4509 211.345 79.1564 210.24L64.1455 236.218C55.3891 231.04 47.2727 224.814 40 217.687ZM95.4764 249.367C85.2655 246.633 75.4327 242.618 66.1818 237.411L86.1382 202.822C90.7637 205.411 95.6218 207.564 100.625 209.251C100.189 209.716 99.8691 210.298 99.6946 210.938L96.6109 222.545L84.1018 227.869L83.3455 227.665L83.0546 228.8C82.5891 230.574 82.8218 232.465 83.7527 234.065C84.6836 235.665 86.1673 236.8 87.9709 237.294L108.073 242.676C111.767 243.665 115.549 241.454 116.567 237.789L116.887 236.654L116.16 236.451L107.985 225.571L111.098 213.964C111.273 213.324 111.273 212.655 111.127 212.044C116.335 213.091 121.6 213.644 126.895 213.731V253.644C116.247 253.527 105.716 252.102 95.4764 249.367Z" fill="#190000"/>
</g>
<defs>
<clipPath id="clip0">
<rect width="256" height="256" fill="white"/>
</clipPath>
</defs>
</svg>
