<svg width="32" height="32" viewBox="0 0 32 32" fill="none" xmlns="http://www.w3.org/2000/svg">
<path fill-rule="evenodd" clip-rule="evenodd" d="M27.6505 9.04557C27.8312 8.44287 27.6505 8 26.7903 8H23.9459C23.2226 8 22.8892 8.38257 22.7084 8.80444C22.7084 8.80444 21.2619 12.3302 19.2128 14.6204C18.5498 15.2833 18.2484 15.4943 17.8868 15.4943C17.706 15.4943 17.4348 15.2833 17.4348 14.6807V9.04557C17.4348 8.32233 17.2344 8 16.6317 8H12.1619C11.7099 8 11.4381 8.33567 11.4381 8.6538C11.4381 9.33942 12.4626 9.49753 12.5682 11.4262V15.6149C12.5682 16.5332 12.4024 16.6997 12.0408 16.6997C11.0765 16.6997 8.7309 13.1582 7.33975 9.10581C7.06711 8.31817 6.79367 8 6.06672 8H3.22231C2.40962 8 2.24707 8.38257 2.24707 8.80444C2.24707 9.55783 3.21139 13.2945 6.7371 18.2366C9.08755 21.6116 12.3992 23.4411 15.4126 23.4411C17.2207 23.4411 17.4444 23.0347 17.4444 22.3348V19.784C17.4444 18.9713 17.6156 18.8091 18.1882 18.8091C18.6101 18.8091 19.3333 19.02 21.0209 20.6473C22.9494 22.5759 23.2674 23.4411 24.3522 23.4411H27.1966C28.0093 23.4411 28.4157 23.0347 28.1812 22.2328C27.9247 21.4336 27.0039 20.2741 25.7821 18.8995C25.1191 18.116 24.1247 17.2723 23.8233 16.8503C23.4015 16.308 23.522 16.0668 23.8233 15.5847C23.8233 15.5847 27.2888 10.7029 27.6505 9.04557Z" fill="#190000"/>
</svg>
